<svg width="68" height="81" viewBox="0 0 68 81" fill="none" xmlns="http://www.w3.org/2000/svg">
<g filter="url(#filter0_d_304_6272)">
<path d="M33.0558 50.9913L35.0781 64.274H37.5015L41.262 44.5192C40.8901 44.4899 40.5224 44.4648 40.1464 44.4648H38.9347C36.5656 45.6724 33.8664 46.366 31.0001 46.366C28.1338 46.366 25.4347 45.6765 23.0656 44.4648H21.8539C21.4737 44.4648 21.106 44.4941 20.7383 44.5192L24.4987 64.274H26.9179L28.9402 50.9913H29.0113L27.0266 47.3437H34.9653L32.9806 50.9913H33.0517H33.0558Z" fill="white"/>
<path d="M41.2618 44.5198L37.5014 64.2747H24.507L20.7465 44.5198C13.0585 45.088 7 51.4892 7 59.3151V66.5226H55V59.3151C55 51.485 48.9415 45.088 41.2618 44.5156V44.5198Z" fill="white"/>
<path d="M26.9219 64.2741H35.0779L33.0556 50.9914H32.9845L34.9692 47.3438H27.0305L29.0152 50.9914H28.9442L26.9219 64.2741Z" fill="#303030"/>
<path d="M10.1758 29.0014V30.2967C10.1758 32.5111 12.0476 34.3078 14.3457 34.3078H14.5922C15.8457 38.7075 18.9627 42.3677 23.0699 44.4652C25.439 45.6727 28.1382 46.3663 31.0045 46.3663C33.8708 46.3663 36.5658 45.6769 38.939 44.4652C43.0463 42.3677 46.1591 38.7075 47.4126 34.3078H47.6591C49.9571 34.3078 51.829 32.5111 51.829 30.2967V29.0014C51.829 27.0836 50.4209 25.4875 48.549 25.0905C48.6159 24.5139 48.6619 23.9331 48.6619 23.3357L48.6535 23.1685C48.6535 22.7423 48.641 22.3036 48.5866 21.8315C48.3318 19.0947 47.3791 16.5627 45.9084 14.4109C45.1521 13.3036 44.2454 12.3008 43.2385 11.4234C40.5435 9.06685 37.0504 7.61281 33.2148 7.52089L33.0226 7.3663C32.8554 7.18663 32.6758 7.1532 32.5546 7.1532C32.2663 7.1532 32.0658 7.3454 31.9028 7.5H31.8485C30.9209 6.57242 30.2231 6 29.6256 6C29.0574 6.04178 26.3833 6.99025 25.5309 7.6337C25.3429 7.77577 25.1298 7.95961 24.9042 8.16017C18.3485 10.0947 13.5602 16.1574 13.5602 23.3398C13.5602 23.4485 13.5685 23.5571 13.5685 23.6657C13.5602 24.1504 13.5769 24.6267 13.6229 25.0947C11.68 25.4331 10.1883 27.0376 10.1883 29.0056L10.1758 29.0014ZM48.102 27.4262C48.829 27.6184 49.3722 28.2409 49.3722 28.9972V30.2925C49.3722 31.124 48.7287 31.805 47.8972 31.922C47.9766 31.2869 48.0268 30.6435 48.0268 29.9875C48.0268 29.3315 47.9683 28.734 47.8889 28.1198C47.9599 27.89 48.0351 27.6602 48.0978 27.4262H48.102ZM16.6061 27.8983C16.6563 27.5808 16.7273 27.2716 16.7983 26.9582C18.7956 25.5376 21.3568 23.3273 22.3387 21.585C22.3387 21.585 38.517 25.3747 44.4126 25.8092C44.5797 25.8217 44.7426 25.8301 44.8931 25.8301C45.1103 26.5028 45.2816 27.188 45.3944 27.8941C45.5031 28.5794 45.5741 29.273 45.5741 29.9833C45.5741 30.493 45.5407 30.9944 45.4864 31.4875C45.3944 32.3357 45.2148 33.1546 44.9683 33.9485C43.1841 39.7479 37.602 44.0014 30.9961 44.0014C24.3903 44.0014 18.8081 39.7521 17.024 33.9526C16.7775 33.1588 16.602 32.3398 16.51 31.4916C16.4515 30.9944 16.4223 30.4972 16.4223 29.9875C16.4223 29.2772 16.4933 28.5794 16.602 27.8983H16.6061ZM12.6284 29.0014C12.6284 28.1825 13.2552 27.5181 14.0658 27.3886C14.0699 27.702 14.0825 28.0153 14.0866 28.3287C14.0198 28.876 13.9697 29.4234 13.9697 29.9875C13.9697 30.6435 14.0198 31.2869 14.0992 31.922C13.2677 31.805 12.6242 31.124 12.6242 30.2925V28.9972L12.6284 29.0014Z" fill="white"/>
</g>
<defs>
<filter id="filter0_d_304_6272" x="0" y="0" width="68" height="80.5225" filterUnits="userSpaceOnUse" color-interpolation-filters="sRGB">
<feFlood flood-opacity="0" result="BackgroundImageFix"/>
<feColorMatrix in="SourceAlpha" type="matrix" values="0 0 0 0 0 0 0 0 0 0 0 0 0 0 0 0 0 0 127 0" result="hardAlpha"/>
<feOffset dx="3" dy="4"/>
<feGaussianBlur stdDeviation="5"/>
<feComposite in2="hardAlpha" operator="out"/>
<feColorMatrix type="matrix" values="0 0 0 0 1 0 0 0 0 1 0 0 0 0 1 0 0 0 0.25 0"/>
<feBlend mode="normal" in2="BackgroundImageFix" result="effect1_dropShadow_304_6272"/>
<feBlend mode="normal" in="SourceGraphic" in2="effect1_dropShadow_304_6272" result="shape"/>
</filter>
</defs>
</svg>
