<svg width="81" height="76" viewBox="0 0 81 76" fill="none" xmlns="http://www.w3.org/2000/svg">
<g filter="url(#filter0_d_304_6245)">
<path d="M67.6388 58.8438V59.6658C67.6388 60.8989 66.6239 61.8935 65.4112 61.8935H9.22765C7.99458 61.8935 7 60.8786 7 59.6658V58.8438H67.6388Z" fill="white"/>
<path d="M67.6388 38.3762V57.4203H7V38.3965C8.04025 39.5636 9.57271 40.3247 11.2625 40.3247H29.1801V41.6644C29.1801 42.3342 29.7231 42.8771 30.3929 42.8771H34.2646V46.7083C34.2646 48.3727 35.6296 49.758 37.3143 49.758C38.999 49.758 40.364 48.393 40.364 46.7083V42.8771H44.2358C44.9056 42.8771 45.4486 42.3342 45.4486 41.6644V40.2994H63.3662C65.056 40.2994 66.5884 39.5433 67.6287 38.3711L67.6388 38.3762Z" fill="white"/>
<path d="M54.0039 18.4219V20.3045H48.1836V18.4219H49.1325H53.0499H54.0039Z" fill="white"/>
<path d="M52.3333 9.39983V16.9759H49.8874V9.39983C49.8874 8.88225 49.4561 8.44585 48.9335 8.44585H25.6928C25.1752 8.44585 24.7388 8.87717 24.7388 9.39983V16.9759H22.293V9.39983C22.293 7.51724 23.8102 6 25.6928 6H48.9132C50.7958 6.04567 52.3333 7.55783 52.3333 9.39983Z" fill="white"/>
<path d="M44.0081 39.5635V41.4258H39.6543H35.0011H30.6523V39.5889V37.7266H44.0081V39.5635Z" fill="white"/>
<path d="M38.9179 42.875V46.7062C38.9179 47.5942 38.2278 48.3097 37.3144 48.3097C36.4011 48.3097 35.7109 47.6195 35.7109 46.7062V42.875H38.9129H38.9179Z" fill="white"/>
<path d="M26.4355 18.4219V20.3045H20.5898V18.4219H21.5844H25.5018H26.4355Z" fill="white"/>
<path d="M67.6369 23.962V34.4355C67.6166 34.4812 67.6166 34.5218 67.6166 34.5878C67.6166 36.9474 65.7137 38.8503 63.3744 38.8503H45.4568V37.5106C45.4568 36.8408 44.9138 36.2978 44.244 36.2978H30.4366C29.7668 36.2978 29.2238 36.8408 29.2238 37.5106V38.8503H11.3062C8.94663 38.8503 7.04374 36.9423 7.04374 34.5878C7.04374 34.5421 7.04374 34.5015 7.02344 34.4558V23.962C7.02344 22.729 8.01802 21.7344 9.25109 21.7344H19.7703C19.8159 21.7547 19.8565 21.7547 19.9022 21.7547C19.9479 21.7547 19.9885 21.7547 20.0341 21.7344H27.0672C27.1129 21.7547 27.1535 21.7547 27.1992 21.7547C27.2448 21.7547 27.3057 21.7547 27.3514 21.7344H47.3698C47.4155 21.7547 47.4561 21.7547 47.5018 21.7547C47.5474 21.7547 47.588 21.7547 47.6337 21.7344H54.6465C54.6921 21.7547 54.7327 21.7547 54.7784 21.7547C54.8241 21.7547 54.885 21.7547 54.9306 21.7344H65.4701C66.6626 21.7344 67.6572 22.729 67.6572 23.962H67.6369Z" fill="white"/>
</g>
<defs>
<filter id="filter0_d_304_6245" x="0" y="0" width="80.6562" height="75.8936" filterUnits="userSpaceOnUse" color-interpolation-filters="sRGB">
<feFlood flood-opacity="0" result="BackgroundImageFix"/>
<feColorMatrix in="SourceAlpha" type="matrix" values="0 0 0 0 0 0 0 0 0 0 0 0 0 0 0 0 0 0 127 0" result="hardAlpha"/>
<feOffset dx="3" dy="4"/>
<feGaussianBlur stdDeviation="5"/>
<feComposite in2="hardAlpha" operator="out"/>
<feColorMatrix type="matrix" values="0 0 0 0 1 0 0 0 0 1 0 0 0 0 1 0 0 0 0.25 0"/>
<feBlend mode="normal" in2="BackgroundImageFix" result="effect1_dropShadow_304_6245"/>
<feBlend mode="normal" in="SourceGraphic" in2="effect1_dropShadow_304_6245" result="shape"/>
</filter>
</defs>
</svg>
