<svg width="77" height="88" viewBox="0 0 77 88" fill="none" xmlns="http://www.w3.org/2000/svg">
<g filter="url(#filter0_d_304_6286)">
<path fill-rule="evenodd" clip-rule="evenodd" d="M13.6571 36.6664C13.2049 36.6664 12.8281 36.3413 12.8281 35.9512V21.4952C12.8281 19.8263 14.4108 18.4609 16.3451 18.4609H18.1789C18.6311 18.4609 19.0079 18.786 19.0079 19.1762C19.0079 19.5663 18.6311 19.8914 18.1789 19.8914H16.3451C15.3151 19.8914 14.461 20.6283 14.461 21.5169V35.9729C14.4861 36.3847 14.1093 36.6664 13.6571 36.6664Z" fill="#FFFFFE"/>
<path fill-rule="evenodd" clip-rule="evenodd" d="M57.3173 36.6686C56.8652 36.6686 56.4883 36.3435 56.4883 35.9533V21.4973C56.4883 20.6087 55.6342 19.8718 54.6043 19.8718H52.7704C52.3182 19.8718 51.9414 19.5467 51.9414 19.1566C51.9414 18.7665 52.3182 18.4414 52.7704 18.4414H54.6043C56.5386 18.4414 58.1212 19.8068 58.1212 21.4757V35.9317C58.1212 36.3868 57.7444 36.6686 57.3173 36.6686Z" fill="#FFFFFE"/>
<path fill-rule="evenodd" clip-rule="evenodd" d="M21.0678 16.4688C19.033 16.4688 17.375 17.6824 17.375 19.1779C17.375 20.6733 19.033 21.887 21.0678 21.887C23.1026 21.887 24.7858 20.6733 24.7606 19.1779C24.7606 17.6824 23.1026 16.4688 21.0678 16.4688Z" fill="#FFFFFE"/>
<path fill-rule="evenodd" clip-rule="evenodd" d="M49.9077 16.4688C47.8728 16.4688 46.2148 17.6824 46.2148 19.1779C46.2148 20.6733 47.8728 21.887 49.9077 21.887C51.9425 21.887 53.5754 20.6733 53.6005 19.1779C53.6005 17.6824 51.9425 16.4688 49.9077 16.4688ZM50.3247 17.9295C50.1815 17.9122 50.0358 17.9013 49.8851 17.9013C49.8926 17.9013 49.9001 17.9013 49.9077 17.9013C50.0508 17.9013 50.1915 17.9122 50.3247 17.9317V17.9295Z" fill="#FFFFFE"/>
<path fill-rule="evenodd" clip-rule="evenodd" d="M35.4869 6C31.5428 6 27.5234 8.51409 27.5234 13.2822C27.5234 17.6602 31.3167 21.6697 35.4869 21.6697C39.657 21.6697 43.4754 17.6818 43.4503 13.2822C43.4503 8.49242 39.456 6 35.4869 6Z" fill="#FFFFFE"/>
<path fill-rule="evenodd" clip-rule="evenodd" d="M50.8755 35.6146C50.888 35.6016 50.9006 35.5907 50.9132 35.5777C51.0689 35.4217 51.1468 35.2136 51.1041 34.9947L51.084 34.8885C51.0739 34.7715 51.0488 34.6501 51.0162 34.5266L49.7475 27.8642C49.22 25.1118 47.0345 23.2695 44.2962 23.2695H26.636C23.8978 23.2695 21.7123 25.1118 21.1847 27.8642L19.8282 34.9947C19.7579 35.3523 20.0091 35.6883 20.3984 35.7923C20.4713 35.8183 20.5668 35.8313 20.6848 35.827L50.2751 35.8161H50.4258C50.4936 35.8053 50.5564 35.788 50.6192 35.7641C50.7147 35.7338 50.7926 35.6883 50.8579 35.6319C50.8654 35.6254 50.8705 35.6189 50.878 35.6124L50.8755 35.6146Z" fill="#FFFFFE"/>
<path fill-rule="evenodd" clip-rule="evenodd" d="M63.171 35.2578H7.829C7.37682 35.2578 7 35.5829 7 35.973V45.5959C7 45.986 7.37682 46.3111 7.829 46.3111H63.1459C63.6232 46.3111 64 45.986 64 45.5959V35.973C64 35.5829 63.6232 35.2578 63.171 35.2578Z" fill="#FFFFFE"/>
<path fill-rule="evenodd" clip-rule="evenodd" d="M57.9577 47.7153C57.8421 47.5376 57.6236 47.4141 57.3648 47.4141H13.6188C13.4479 47.4141 13.2947 47.4704 13.1766 47.5593C12.953 47.7045 12.8199 47.9407 12.8526 48.1986L15.6661 72.9494C15.7164 73.3179 16.0681 73.5996 16.4951 73.5996H54.4784C54.9306 73.5996 55.2823 73.3612 55.3074 72.9711L58.121 48.2203C58.1461 48.0317 58.0808 47.854 57.9577 47.7153Z" fill="#FFFFFE"/>
</g>
<defs>
<filter id="filter0_d_304_6286" x="0" y="0" width="77" height="87.5996" filterUnits="userSpaceOnUse" color-interpolation-filters="sRGB">
<feFlood flood-opacity="0" result="BackgroundImageFix"/>
<feColorMatrix in="SourceAlpha" type="matrix" values="0 0 0 0 0 0 0 0 0 0 0 0 0 0 0 0 0 0 127 0" result="hardAlpha"/>
<feOffset dx="3" dy="4"/>
<feGaussianBlur stdDeviation="5"/>
<feComposite in2="hardAlpha" operator="out"/>
<feColorMatrix type="matrix" values="0 0 0 0 1 0 0 0 0 1 0 0 0 0 1 0 0 0 0.25 0"/>
<feBlend mode="normal" in2="BackgroundImageFix" result="effect1_dropShadow_304_6286"/>
<feBlend mode="normal" in="SourceGraphic" in2="effect1_dropShadow_304_6286" result="shape"/>
</filter>
</defs>
</svg>
